# Rummikub rack - generated for Tabletop Simulator
v -8.00000 0.35000 -1.25000
v -8.00000 0.35000 -1.11000
v -8.00000 0.15000 -1.11000
v -8.00000 0.15000 -0.49000
v -8.00000 1.05000 -0.07000
v -8.00000 1.05000 0.07000
v -8.00000 0.85000 0.07000
v -8.00000 0.85000 0.69000
v -8.00000 1.75000 1.11000
v -8.00000 1.75000 1.25000
v -8.00000 0.00000 1.25000
v -8.00000 0.00000 -1.25000
v 8.00000 0.35000 -1.25000
v 8.00000 0.35000 -1.11000
v 8.00000 0.15000 -1.11000
v 8.00000 0.15000 -0.49000
v 8.00000 1.05000 -0.07000
v 8.00000 1.05000 0.07000
v 8.00000 0.85000 0.07000
v 8.00000 0.85000 0.69000
v 8.00000 1.75000 1.11000
v 8.00000 1.75000 1.25000
v 8.00000 0.00000 1.25000
v 8.00000 0.00000 -1.25000
vn -0.57735 0.57735 -0.57735
vn -0.57735 0.57735 0.57735
vn -0.90453 0.30151 0.30151
vn -0.85000 0.44432 -0.28297
vn -0.60385 0.67233 -0.42818
vn -0.57735 0.57735 0.57735
vn -0.90453 0.30151 0.30151
vn -0.85000 0.44432 -0.28297
vn -0.60385 0.67233 -0.42818
vn -0.57735 0.57735 0.57735
vn -0.57735 -0.57735 0.57735
vn -0.57735 -0.57735 -0.57735
vn 0.57735 0.57735 -0.57735
vn 0.57735 0.57735 0.57735
vn 0.90453 0.30151 0.30151
vn 0.85000 0.44432 -0.28297
vn 0.60385 0.67233 -0.42818
vn 0.57735 0.57735 0.57735
vn 0.90453 0.30151 0.30151
vn 0.85000 0.44432 -0.28297
vn 0.60385 0.67233 -0.42818
vn 0.57735 0.57735 0.57735
vn 0.57735 -0.57735 0.57735
vn 0.57735 -0.57735 -0.57735
f 11//11 10//10 9//9
f 7//7 6//6 5//5
f 3//3 2//2 1//1
f 11//11 9//9 8//8
f 7//7 5//5 4//4
f 3//3 1//1 12//12
f 11//11 8//8 7//7
f 4//4 3//3 12//12
f 11//11 7//7 4//4
f 4//4 12//12 11//11
f 21//21 22//22 23//23
f 17//17 18//18 19//19
f 13//13 14//14 15//15
f 20//20 21//21 23//23
f 16//16 17//17 19//19
f 24//24 13//13 15//15
f 19//19 20//20 23//23
f 24//24 15//15 16//16
f 16//16 19//19 23//23
f 23//23 24//24 16//16
f 1//1 14//14 13//13
f 2//2 14//14 1//1
f 2//2 15//15 14//14
f 3//3 15//15 2//2
f 3//3 16//16 15//15
f 4//4 16//16 3//3
f 4//4 17//17 16//16
f 5//5 17//17 4//4
f 5//5 18//18 17//17
f 6//6 18//18 5//5
f 6//6 19//19 18//18
f 7//7 19//19 6//6
f 7//7 20//20 19//19
f 8//8 20//20 7//7
f 8//8 21//21 20//20
f 9//9 21//21 8//8
f 9//9 22//22 21//21
f 10//10 22//22 9//9
f 10//10 23//23 22//22
f 11//11 23//23 10//10
f 12//12 13//13 24//24
f 1//1 13//13 12//12
f 11//11 24//24 23//23
f 12//12 24//24 11//11
